<svg xmlns="http://www.w3.org/2000/svg" version="1.1" xmlns:xlink="http://www.w3.org/1999/xlink" xmlns:svgjs="http://svgjs.com/svgjs" width="96" height="80"><svg width="96" height="80" viewBox="0 0 96 80" fill="none" xmlns="http://www.w3.org/2000/svg">
<path d="M92 36.04L72 36C69.8 36 68 37.8 68 40V76C68 78.2 69.8 80 72 80H92C94.2 80 96 78.2 96 76V40C96 37.8 94.2 36.04 92 36.04ZM92 72H72V44H92V72ZM80 0H8C3.56 0 0 3.56 0 8V56C0 60.4 3.56 64 8 64H36V72H28V80H60V72H52V64H60V56H8V8H80V28H88V8C88 3.56 84.4 0 80 0ZM47.88 28L44 16L40.12 28H28L37.88 35.04L34.12 46.68L44 39.48L53.88 46.68L50.12 35.04L60 28H47.88Z" fill="#80B541"></path>
</svg><style>@media (prefers-color-scheme: light) { :root { filter: none; } }
</style></svg>